<?xml version="1.0" encoding="utf-8"?>
<!-- Generator: Adobe Illustrator 19.2.1, SVG Export Plug-In . SVG Version: 6.00 Build 0)  -->
<svg version="1.1" id="Layer_1" xmlns="http://www.w3.org/2000/svg" xmlns:xlink="http://www.w3.org/1999/xlink" x="0px" y="0px"
	 viewBox="0 0 32 32" style="enable-background:new 0 0 32 32;" xml:space="preserve">
<style type="text/css">
	.st0{fill:#056DD4;}
</style>
<title>i-search</title>
<path class="st0" d="M8,7.2c-3.5,3.5-3.6,9.3,0,12.8c3.5,3.5,9.3,3.6,12.8,0s3.6-9.3,0-12.8c0,0,0,0,0,0C17.2,3.7,11.5,3.7,8,7.2z
	 M19.9,19.1c-3,3-7.9,3-11,0s-3-7.9,0-11c3-3,7.9-3,11,0C22.9,11.1,22.9,16,19.9,19.1C19.9,19.1,19.9,19.1,19.9,19.1z"/>
<rect x="23" y="17.7" transform="matrix(0.7071 -0.7071 0.7071 0.7071 -9.2373 23.4197)" class="st0" width="1.2" height="10.3"/>
</svg>
