<svg id="Layer_1" data-name="Layer 1" xmlns="http://www.w3.org/2000/svg" viewBox="0 0 201.83 44.38"><defs><style>.cls-1{fill:#8fcbe7;}.cls-2{fill:#28517c;}</style></defs><title>logo-cloudgov</title><polygon id="Fill-1" class="cls-1" points="17 0 0 12.38 6.93 17.71 14.49 17.71 17 9.98 19.5 17.71 27.08 17.71 34 12.38 17 0"/><polygon id="Fill-2" class="cls-2" points="27.08 17.7 27.09 17.7 21.05 22.48 23.56 30.2 16.99 25.43 10.43 30.2 12.94 22.48 6.93 17.7 6.93 17.7 0 12.38 0 32.02 17 44.38 34 32.02 34 12.38 27.08 17.7"/><path class="cls-2" d="M55.59,19.27a4.34,4.34,0,0,0-2.12-.61,3.74,3.74,0,0,0-2,.58A4,4,0,0,0,50,20.83a5.24,5.24,0,0,0,0,4.58A4.12,4.12,0,0,0,51.43,27a3.68,3.68,0,0,0,2,.59,4.74,4.74,0,0,0,2.05-.53,6.7,6.7,0,0,0,2-1.44l2.88,3.07a10.23,10.23,0,0,1-3.3,2.38,9.19,9.19,0,0,1-8.38-.25,8.25,8.25,0,0,1-3.18-3.16,8.93,8.93,0,0,1-1.15-4.51,8.51,8.51,0,0,1,1.18-4.43,8.34,8.34,0,0,1,3.24-3.11,9.67,9.67,0,0,1,8.42-.31,9.26,9.26,0,0,1,3.17,2.18l-2.88,3.43A6,6,0,0,0,55.59,19.27Z" transform="translate(-0.29 -0.12)"/><path class="cls-2" d="M63.55,14.82h5V27.46H75.6v4.18h-12V14.82Z" transform="translate(-0.29 -0.12)"/><path class="cls-2" d="M91.3,15.63a8.37,8.37,0,0,1,3.29,3.11,8.49,8.49,0,0,1,1.19,4.45,8.66,8.66,0,0,1-1.19,4.5,8.4,8.4,0,0,1-3.29,3.14,10.25,10.25,0,0,1-9.4,0,8.42,8.42,0,0,1-3.28-3.14,8.66,8.66,0,0,1-1.19-4.5,8.49,8.49,0,0,1,1.19-4.45,8.39,8.39,0,0,1,3.28-3.11A10.34,10.34,0,0,1,91.3,15.63Zm-6.67,3.62a4.34,4.34,0,0,0-1.51,1.64,4.8,4.8,0,0,0-.56,2.32,4.87,4.87,0,0,0,.56,2.33,4.42,4.42,0,0,0,1.51,1.67,3.71,3.71,0,0,0,2.05.61,3.56,3.56,0,0,0,2-.61,4.24,4.24,0,0,0,1.45-1.66,5.39,5.39,0,0,0,0-4.66,4.17,4.17,0,0,0-1.44-1.64,3.59,3.59,0,0,0-2-.6A3.76,3.76,0,0,0,84.63,19.26Z" transform="translate(-0.29 -0.12)"/><path class="cls-2" d="M104.88,27a2.69,2.69,0,0,0,2,.86,2.53,2.53,0,0,0,2-.85,3.29,3.29,0,0,0,.77-2.29V14.82h5v9.86a7.57,7.57,0,0,1-.95,3.85,6.43,6.43,0,0,1-2.7,2.54,8.81,8.81,0,0,1-4.08.9,9,9,0,0,1-4.13-.9A6.55,6.55,0,0,1,100,28.53a7.42,7.42,0,0,1-1-3.85V14.82h5v9.86A3.19,3.19,0,0,0,104.88,27Z" transform="translate(-0.29 -0.12)"/><path class="cls-2" d="M131,15.86a7.62,7.62,0,0,1,3.18,3,8.49,8.49,0,0,1,1.13,4.4,8.42,8.42,0,0,1-1.15,4.42,7.7,7.7,0,0,1-3.24,3,10.65,10.65,0,0,1-4.82,1h-7.2V14.82h7.37A10.31,10.31,0,0,1,131,15.86ZM129.16,26.5a4.79,4.79,0,0,0,1.06-3.24A4.68,4.68,0,0,0,129.09,20a3.77,3.77,0,0,0-2.93-1.25h-2.28v9h2.52A3.47,3.47,0,0,0,129.16,26.5Z" transform="translate(-0.29 -0.12)"/><path class="cls-2" d="M141.58,27.94a2.16,2.16,0,0,1,.64,1.61,2.18,2.18,0,0,1-2.28,2.28,2.19,2.19,0,0,1-1.62-.64,2.22,2.22,0,0,1-.64-1.64,2.16,2.16,0,0,1,.64-1.61,2.21,2.21,0,0,1,1.62-.62A2.25,2.25,0,0,1,141.58,27.94Z" transform="translate(-0.29 -0.12)"/><path class="cls-2" d="M157.72,30.22a6.33,6.33,0,0,1-4.2,1.54,8.67,8.67,0,0,1-3.17-.59,7.58,7.58,0,0,1-2.64-1.72,8.33,8.33,0,0,1-1.8-2.76,9.69,9.69,0,0,1-.67-3.72,8.32,8.32,0,0,1,2.52-6,8.74,8.74,0,0,1,2.77-1.8,8.91,8.91,0,0,1,3.44-.66,9.48,9.48,0,0,1,2.21.25,7.86,7.86,0,0,1,2,.74,7.71,7.71,0,0,1,1.62,1.18,6,6,0,0,1,1.18,1.55l-3.48,2.66a3.92,3.92,0,0,0-1.51-1.62,4,4,0,0,0-2.14-.61,3.48,3.48,0,0,0-1.54.34,3.58,3.58,0,0,0-1.2.94,4.48,4.48,0,0,0-.79,1.43,5.89,5.89,0,0,0,0,3.64,4.25,4.25,0,0,0,.8,1.4,3.58,3.58,0,0,0,1.24.91,3.86,3.86,0,0,0,1.61.32,4.78,4.78,0,0,0,3.6-1.68h-3V22.57h7v9.07h-3.86V30.22Z" transform="translate(-0.29 -0.12)"/><path class="cls-2" d="M178.42,15.63a8.37,8.37,0,0,1,3.29,3.11,8.48,8.48,0,0,1,1.19,4.45,8.65,8.65,0,0,1-1.19,4.5,8.41,8.41,0,0,1-3.29,3.14,10.25,10.25,0,0,1-9.4,0,8.42,8.42,0,0,1-3.28-3.14,8.66,8.66,0,0,1-1.19-4.5,8.49,8.49,0,0,1,1.19-4.45A8.39,8.39,0,0,1,169,15.63,10.34,10.34,0,0,1,178.42,15.63Zm-6.67,3.62a4.34,4.34,0,0,0-1.51,1.64,4.8,4.8,0,0,0-.56,2.32,4.86,4.86,0,0,0,.56,2.33,4.42,4.42,0,0,0,1.51,1.67,3.71,3.71,0,0,0,2.05.61,3.56,3.56,0,0,0,2-.61,4.25,4.25,0,0,0,1.45-1.66,5.4,5.4,0,0,0,0-4.66,4.17,4.17,0,0,0-1.44-1.64,3.59,3.59,0,0,0-2-.6A3.76,3.76,0,0,0,171.75,19.26Z" transform="translate(-0.29 -0.12)"/><path class="cls-2" d="M184,14.82h5.33l3.84,11.64L197,14.82h5.11l-6.5,16.82h-5.18Z" transform="translate(-0.29 -0.12)"/></svg>