<svg width="32px" height="32px" viewBox="0 0 32 32" version="1.1" xmlns="http://www.w3.org/2000/svg" xmlns:xlink="http://www.w3.org/1999/xlink">
    <defs>
        <rect id="path-1" x="0" y="0" width="32" height="32" rx="2"></rect>
        <mask id="mask-2" maskContentUnits="userSpaceOnUse" maskUnits="objectBoundingBox" x="0" y="0" width="32" height="32" fill="white">
            <use xlink:href="#path-1"></use>
        </mask>
    </defs>
    <g id="features/search" stroke="none" stroke-width="1" fill="none" fill-rule="evenodd">
        <g id="search" transform="translate(-961.000000, -194.000000)">
            <g id="original" transform="translate(36.000000, -27.000000)">
                <g id="header">
                    <g id="Group" transform="translate(824.000000, 0.000000)">
                        <g id="Group-4" transform="translate(101.000000, 221.000000)">
                            <use id="Rectangle-9" stroke="#333333" mask="url(#mask-2)" stroke-width="2" fill="#FFFFFF" xlink:href="#path-1"></use>
                            <path d="M19.5714424,14.928563 C19.5714424,17.4095927 17.5524667,19.4285684 15.071437,19.4285684 C12.5904073,19.4285684 10.5714316,17.4095927 10.5714316,14.928563 C10.5714316,12.4475333 12.5904073,10.4285576 15.071437,10.4285576 C17.5524667,10.4285576 19.5714424,12.4475333 19.5714424,14.928563 L19.5714424,14.928563 Z M24.7143056,23.2857158 C24.7143056,22.9441976 24.5736805,22.6127239 24.3426534,22.3816969 L20.8973368,18.9363803 C21.7109538,17.7611557 22.142874,16.354904 22.142874,14.928563 C22.142874,11.0211923 18.9788077,7.857126 15.071437,7.857126 C11.1640663,7.857126 8,11.0211923 8,14.928563 C8,18.8359337 11.1640663,22 15.071437,22 C16.497778,22 17.9040297,21.5680798 19.0792543,20.7544628 L22.5245709,24.1897348 C22.7555979,24.4308065 23.0870716,24.5714316 23.4285898,24.5714316 C24.1317157,24.5714316 24.7143056,23.9888417 24.7143056,23.2857158 L24.7143056,23.2857158 Z" id="" fill="#333333"></path>
                        </g>
                    </g>
                </g>
            </g>
        </g>
    </g>
</svg>