<svg id="Layer_1" data-name="Layer 1" xmlns="http://www.w3.org/2000/svg" viewBox="0 0 18.88 16.18"><defs><style>.cls-1{fill:#999;}</style></defs><title>external-link-grey</title><path class="cls-1" d="M17.43,13.29H16.76a0.32,0.32,0,0,0-.34.34V17a1.69,1.69,0,0,1-1.69,1.69H6A1.69,1.69,0,0,1,4.29,17V8.24A1.69,1.69,0,0,1,6,6.55h7.42a0.32,0.32,0,0,0,.34-0.34V5.54a0.32,0.32,0,0,0-.34-0.34H6a2.92,2.92,0,0,0-2.14.89,2.92,2.92,0,0,0-.89,2.14V17a2.92,2.92,0,0,0,.89,2.14A2.92,2.92,0,0,0,6,20h8.76a3,3,0,0,0,3-3V13.63A0.32,0.32,0,0,0,17.43,13.29Z" transform="translate(-2.94 -3.86)"/><path class="cls-1" d="M21.61,4.06a0.65,0.65,0,0,0-.47-0.2H15.75A0.67,0.67,0,0,0,15.27,5l1.85,1.85-6.87,6.87a0.33,0.33,0,0,0,0,.48l1.2,1.2a0.33,0.33,0,0,0,.48,0l6.87-6.87,1.85,1.85a0.67,0.67,0,0,0,1.15-.47V4.53a0.65,0.65,0,0,0-.2-0.47h0Z" transform="translate(-2.94 -3.86)"/></svg>