<?xml version="1.0" encoding="UTF-8" standalone="no"?>
<svg width="17px" height="18px" viewBox="0 0 17 18" version="1.1" xmlns="http://www.w3.org/2000/svg" xmlns:xlink="http://www.w3.org/1999/xlink">
    <!-- Generator: Sketch 39.1 (31720) - http://www.bohemiancoding.com/sketch -->
    <title></title>
    <desc>Created with Sketch.</desc>
    <defs></defs>
    <g id="features/search" stroke="none" stroke-width="1" fill="none" fill-rule="evenodd">
        <g id="search" transform="translate(-912.000000, -475.000000)" fill="#157DE6">
            <g id="search-selected" transform="translate(27.000000, 432.000000)">
                <g id="header-copy" transform="translate(0.000000, 21.000000)">
                    <g id="Group-6" transform="translate(319.000000, 19.000000)">
                        <path d="M577.571442,10.928563 C577.571442,13.4095927 575.552467,15.4285684 573.071437,15.4285684 C570.590407,15.4285684 568.571432,13.4095927 568.571432,10.928563 C568.571432,8.44753326 570.590407,6.42855763 573.071437,6.42855763 C575.552467,6.42855763 577.571442,8.44753326 577.571442,10.928563 L577.571442,10.928563 Z M582.714306,19.2857158 C582.714306,18.9441976 582.57368,18.6127239 582.342653,18.3816969 L578.897337,14.9363803 C579.710954,13.7611557 580.142874,12.354904 580.142874,10.928563 C580.142874,7.02119227 576.978808,3.857126 573.071437,3.857126 C569.164066,3.857126 566,7.02119227 566,10.928563 C566,14.8359337 569.164066,18 573.071437,18 C574.497778,18 575.90403,17.5680798 577.079254,16.7544628 L580.524571,20.1897348 C580.755598,20.4308065 581.087072,20.5714316 581.42859,20.5714316 C582.131716,20.5714316 582.714306,19.9888417 582.714306,19.2857158 L582.714306,19.2857158 Z" id=""></path>
                    </g>
                </g>
            </g>
        </g>
    </g>
</svg>